<?xml version="1.0" encoding="UTF-8"?>
<svg version="1.1" xmlns="http://www.w3.org/2000/svg" width="65" height="65">
<path d="M0 0 C3.375 0.875 3.375 0.875 5.375 3.875 C6.035 3.545 6.695 3.215 7.375 2.875 C9.7079866 2.83477609 12.04206666 2.83179753 14.375 2.875 C15.035 5.185 15.695 7.495 16.375 9.875 C20.83 9.38 20.83 9.38 25.375 8.875 C25.87 10.855 25.87 10.855 26.375 12.875 C25.715 13.865 25.055 14.855 24.375 15.875 C23.715 15.875 23.055 15.875 22.375 15.875 C21.88 17.36 21.88 17.36 21.375 18.875 C20.385 19.535 19.395 20.195 18.375 20.875 C18.87 22.36 18.87 22.36 19.375 23.875 C18.5 26.875 18.5 26.875 17.375 29.875 C16.88 31.36 16.88 31.36 16.375 32.875 C14.3125 34.0625 14.3125 34.0625 12.375 34.875 C12.375 36.195 12.375 37.515 12.375 38.875 C11.055 38.875 9.735 38.875 8.375 38.875 C8.7153125 40.7621875 8.7153125 40.7621875 9.0625 42.6875 C9.5745826 46.59731986 9.5745826 46.59731986 7.9375 48.875 C7.1640625 49.37 7.1640625 49.37 6.375 49.875 C7.035 51.525 7.695 53.175 8.375 54.875 C6.395 55.37 6.395 55.37 4.375 55.875 C4.375 56.535 4.375 57.195 4.375 57.875 C1.375 56.875 1.375 56.875 -0.625 53.875 C-2.605 54.37 -2.605 54.37 -4.625 54.875 C-4.625 53.885 -4.625 52.895 -4.625 51.875 C-5.285 51.875 -5.945 51.875 -6.625 51.875 C-6.955 53.195 -7.285 54.515 -7.625 55.875 C-8.285 55.875 -8.945 55.875 -9.625 55.875 C-9.955 55.215 -10.285 54.555 -10.625 53.875 C-11.615 53.215 -12.605 52.555 -13.625 51.875 C-12.965 50.225 -12.305 48.575 -11.625 46.875 C-14.1 47.37 -14.1 47.37 -16.625 47.875 C-16.625 47.215 -16.625 46.555 -16.625 45.875 C-15.635 45.215 -14.645 44.555 -13.625 43.875 C-13.21065749 41.55468195 -12.87610098 39.21860915 -12.625 36.875 C-12.295 36.215 -11.965 35.555 -11.625 34.875 C-14.1 35.37 -14.1 35.37 -16.625 35.875 C-16.810625 35.09125 -16.99625 34.3075 -17.1875 33.5 C-18.46461627 30.48123658 -18.46461627 30.48123658 -22.25 29.5625 C-23.36375 29.335625 -24.4775 29.10875 -25.625 28.875 C-25.55989583 26.85677083 -25.49479167 24.83854167 -25.4296875 22.8203125 C-25.44168311 20.63636355 -25.44168311 20.63636355 -27.625 18.875 C-27.25 16.75 -27.25 16.75 -26.625 14.875 C-24.645 15.37 -24.645 15.37 -22.625 15.875 C-22.625 17.195 -22.625 18.515 -22.625 19.875 C-20.975 19.875 -19.325 19.875 -17.625 19.875 C-17.934375 19.153125 -18.24375 18.43125 -18.5625 17.6875 C-19.55886968 15.05005085 -20.24789181 12.66560057 -20.625 9.875 C-20.295 9.215 -19.965 8.555 -19.625 7.875 C-19.26886903 6.21305547 -18.93291692 4.546549 -18.625 2.875 C-17.635 2.875 -16.645 2.875 -15.625 2.875 C-15.625 3.535 -15.625 4.195 -15.625 4.875 C-14.635 5.205 -13.645 5.535 -12.625 5.875 C-10.9375 9.4375 -10.9375 9.4375 -9.625 12.875 C-7.975 12.545 -6.325 12.215 -4.625 11.875 C-6.11 7.42 -6.11 7.42 -7.625 2.875 C-4.9375797 0.1875797 -3.8931865 -0.13424781 0 0 Z M12.375 12.875 C13.375 15.875 13.375 15.875 13.375 15.875 Z M-17.625 19.875 C-17.295 21.195 -16.965 22.515 -16.625 23.875 C-15.965 22.555 -15.305 21.235 -14.625 19.875 C-15.615 19.875 -16.605 19.875 -17.625 19.875 Z M12.375 20.875 C11.385 21.865 10.395 22.855 9.375 23.875 C9.705 24.535 10.035 25.195 10.375 25.875 C11.365 24.885 12.355 23.895 13.375 22.875 C13.045 22.215 12.715 21.555 12.375 20.875 Z M-7.625 22.875 C-6.965 23.535 -6.305 24.195 -5.625 24.875 C-5.625 24.215 -5.625 23.555 -5.625 22.875 C-6.285 22.875 -6.945 22.875 -7.625 22.875 Z M-19.625 24.875 C-19.295 25.865 -18.965 26.855 -18.625 27.875 C-17.965 27.545 -17.305 27.215 -16.625 26.875 C-17.615 26.215 -18.605 25.555 -19.625 24.875 Z M12.375 25.875 C11.385 27.855 10.395 29.835 9.375 31.875 C10.365 31.875 11.355 31.875 12.375 31.875 C12.705 29.895 13.035 27.915 13.375 25.875 C13.045 25.875 12.715 25.875 12.375 25.875 Z M-3.625 26.875 C-2.625 29.875 -2.625 29.875 -2.625 29.875 Z M7.375 32.875 C6.715 34.195 6.055 35.515 5.375 36.875 C6.365 36.545 7.355 36.215 8.375 35.875 C8.045 34.885 7.715 33.895 7.375 32.875 Z " fill="#8F9783" transform="translate(33.625,4.125)"/>
<path d="M0 0 C3.375 0.875 3.375 0.875 5.375 3.875 C7.025 3.545 8.675 3.215 10.375 2.875 C11.22231243 8.24131205 11.31035283 12.47073921 10.375 17.875 C10.375 19.195 10.375 20.515 10.375 21.875 C9.385 21.875 8.395 21.875 7.375 21.875 C7.375 23.195 7.375 24.515 7.375 25.875 C8.035 26.535 8.695 27.195 9.375 27.875 C8.385 28.865 7.395 29.855 6.375 30.875 C5.055 27.905 3.735 24.935 2.375 21.875 C1.385 21.875 0.395 21.875 -0.625 21.875 C-1.615 21.545 -2.605 21.215 -3.625 20.875 C-3.625 19.885 -3.625 18.895 -3.625 17.875 C-2.635 17.545 -1.645 17.215 -0.625 16.875 C-0.625 16.215 -0.625 15.555 -0.625 14.875 C-1.285 14.875 -1.945 14.875 -2.625 14.875 C-2.625 15.535 -2.625 16.195 -2.625 16.875 C-3.285 16.875 -3.945 16.875 -4.625 16.875 C-4.955 18.855 -5.285 20.835 -5.625 22.875 C-8.265 22.545 -10.905 22.215 -13.625 21.875 C-13.295 23.525 -12.965 25.175 -12.625 26.875 C-13.945 26.215 -15.265 25.555 -16.625 24.875 C-15.965 23.225 -15.305 21.575 -14.625 19.875 C-15.615 19.875 -16.605 19.875 -17.625 19.875 C-19.04311112 16.56607405 -20.14153861 13.45261427 -20.625 9.875 C-20.295 9.215 -19.965 8.555 -19.625 7.875 C-19.26886903 6.21305547 -18.93291692 4.546549 -18.625 2.875 C-17.635 2.875 -16.645 2.875 -15.625 2.875 C-15.625 3.535 -15.625 4.195 -15.625 4.875 C-14.635 5.205 -13.645 5.535 -12.625 5.875 C-10.9375 9.4375 -10.9375 9.4375 -9.625 12.875 C-7.975 12.545 -6.325 12.215 -4.625 11.875 C-5.615 8.905 -6.605 5.935 -7.625 2.875 C-4.9375797 0.1875797 -3.8931865 -0.13424781 0 0 Z " fill="#BB9D9C" transform="translate(33.625,4.125)"/>
<path d="M0 0 C0.66 0.33 1.32 0.66 2 1 C0.125 8.625 0.125 8.625 -1 12 C-3.0625 13.1875 -3.0625 13.1875 -5 14 C-5 15.32 -5 16.64 -5 18 C-6.32 18 -7.64 18 -9 18 C-8.6596875 19.8871875 -8.6596875 19.8871875 -8.3125 21.8125 C-7.8004174 25.72231986 -7.8004174 25.72231986 -9.4375 28 C-9.953125 28.33 -10.46875 28.66 -11 29 C-10.34 30.65 -9.68 32.3 -9 34 C-10.98 34.495 -10.98 34.495 -13 35 C-13 35.66 -13 36.32 -13 37 C-16 36 -16 36 -17.1875 33.8125 C-18.07334979 30.74609689 -18.14770318 28.17561845 -18 25 C-20.97065509 25.34227572 -20.97065509 25.34227572 -24 26 C-24.33 26.66 -24.66 27.32 -25 28 C-28 27 -28 27 -29.25 24.625 C-30 22 -30 22 -29 19 C-25.37 19.66 -21.74 20.32 -18 21 C-17.34 19.68 -16.68 18.36 -16 17 C-14.989375 16.67 -13.97875 16.34 -12.9375 16 C-11.968125 15.67 -10.99875 15.34 -10 15 C-9.03122943 12.96756452 -9.03122943 12.96756452 -9 11 C-7.68 11 -6.36 11 -5 11 C-4.731875 9.9275 -4.46375 8.855 -4.1875 7.75 C-3.13772173 4.43491072 -2.25387672 2.56122354 0 0 Z " fill="#EAEAE9" transform="translate(51,25)"/>
<path d="M0 0 C1.65 0.33 3.3 0.66 5 1 C5.33 2.98 5.66 4.96 6 7 C10.455 6.505 10.455 6.505 15 6 C15.33 7.32 15.66 8.64 16 10 C15.01 11.485 15.01 11.485 14 13 C13.34 13 12.68 13 12 13 C11.67 13.99 11.34 14.98 11 16 C10.360625 16.144375 9.72125 16.28875 9.0625 16.4375 C8.381875 16.623125 7.70125 16.80875 7 17 C6.33204291 18.33268734 5.66579335 19.66623037 5 21 C3.3665998 23.30818431 1.62023243 25.52568416 -0.125 27.75 C-0.59292969 28.35199219 -1.06085937 28.95398438 -1.54296875 29.57421875 C-2.69225007 31.05186616 -3.84571235 32.52626005 -5 34 C-6.65 33.67 -8.3 33.34 -10 33 C-9.67 31.35 -9.34 29.7 -9 28 C-8.34 28.33 -7.68 28.66 -7 29 C-6.67 28.34 -6.34 27.68 -6 27 C-6.66 27 -7.32 27 -8 27 C-8.144375 26.05125 -8.28875 25.1025 -8.4375 24.125 C-8.82935399 21.1065506 -8.82935399 21.1065506 -10 19 C-9.34 18.34 -8.68 17.68 -8 17 C-7.28385417 18.72526042 -6.56770833 20.45052083 -5.8515625 22.17578125 C-4.93193308 24.26533932 -4.93193308 24.26533932 -3 27 C-3 26.01 -3 25.02 -3 24 C-3.33 23.67 -3.66 23.34 -4 23 C-4.04063832 21.33382885 -4.042721 19.66611905 -4 18 C-2.68 18 -1.36 18 0 18 C0.33 17.34 0.66 16.68 1 16 C0.34 15.67 -0.32 15.34 -1 15 C-0.9278125 14.41992188 -0.855625 13.83984375 -0.78125 13.2421875 C-0.2533613 8.79912426 0.11496626 4.48368422 0 0 Z M2 10 C3 13 3 13 3 13 Z M2 18 C1.01 18.99 0.02 19.98 -1 21 C-0.67 21.66 -0.34 22.32 0 23 C0.99 22.01 1.98 21.02 3 20 C2.67 19.34 2.34 18.68 2 18 Z " fill="#CB97B5" transform="translate(44,7)"/>
<path d="M0 0 C2.88437779 1.29299694 4.87219421 2.65941363 7 5 C4.69 5 2.38 5 0 5 C0.33 7.31 0.66 9.62 1 12 C1.53625 11.855625 2.0725 11.71125 2.625 11.5625 C5.39915827 10.90546252 8.18525388 10.44780052 11 10 C11.33 12.64 11.66 15.28 12 18 C10.35 18.33 8.7 18.66 7 19 C7 18.01 7 17.02 7 16 C6.34 16 5.68 16 5 16 C4.67 17.32 4.34 18.64 4 20 C3.34 20 2.68 20 2 20 C1.67 19.34 1.34 18.68 1 18 C0.01 17.34 -0.98 16.68 -2 16 C-1.34 14.35 -0.68 12.7 0 11 C-1.65 11.33 -3.3 11.66 -5 12 C-5 11.34 -5 10.68 -5 10 C-4.01 9.34 -3.02 8.68 -2 8 C-1.59270772 5.67843403 -1.25561323 3.3431213 -1 1 C-0.67 0.67 -0.34 0.34 0 0 Z " fill="#E3E4E3" transform="translate(22,40)"/>
<path d="M0 0 C0.99 0 1.98 0 3 0 C3 3.66666667 3 7.33333333 3 11 C2.01 11 1.02 11 0 11 C0 12.32 0 13.64 0 15 C0.66 15.66 1.32 16.32 2 17 C1.01 17.99 0.02 18.98 -1 20 C-2.32 17.03 -3.64 14.06 -5 11 C-5.99 11 -6.98 11 -8 11 C-8.99 10.67 -9.98 10.34 -11 10 C-11 9.01 -11 8.02 -11 7 C-10.38125 6.9175 -9.7625 6.835 -9.125 6.75 C-6.81562433 6.18741541 -6.81562433 6.18741541 -5.75 3.9375 C-5.5025 3.298125 -5.255 2.65875 -5 2 C-3.35 2 -1.7 2 0 2 C0 1.34 0 0.68 0 0 Z " fill="#C9B180" transform="translate(41,15)"/>
<path d="M0 0 C0.66 0 1.32 0 2 0 C2 0.66 2 1.32 2 2 C2.99 2.33 3.98 2.66 5 3 C3.42029655 5.08617326 1.83641716 7.16894154 0.25 9.25 C-0.1934375 9.83652344 -0.636875 10.42304688 -1.09375 11.02734375 C-3.53793048 14.22634467 -5.93743587 17.35985851 -9 20 C-11.25 19.75 -11.25 19.75 -13 19 C-12.67 17.35 -12.34 15.7 -12 14 C-11.34 14.33 -10.68 14.66 -10 15 C-9.67 14.34 -9.34 13.68 -9 13 C-9.66 13 -10.32 13 -11 13 C-11.144375 12.05125 -11.28875 11.1025 -11.4375 10.125 C-11.82935399 7.1065506 -11.82935399 7.1065506 -13 5 C-12.34 4.34 -11.68 3.68 -11 3 C-10.28385417 4.72526042 -9.56770833 6.45052083 -8.8515625 8.17578125 C-7.93193308 10.26533932 -7.93193308 10.26533932 -6 13 C-6 12.01 -6 11.02 -6 10 C-6.33 9.67 -6.66 9.34 -7 9 C-7.04063832 7.33382885 -7.042721 5.66611905 -7 4 C-5.68 4 -4.36 4 -3 4 C-1.36323743 2.0399719 -1.36323743 2.0399719 0 0 Z M-1 4 C-1.99 4.99 -2.98 5.98 -4 7 C-3.67 7.66 -3.34 8.32 -3 9 C-2.01 8.01 -1.02 7.02 0 6 C-0.33 5.34 -0.66 4.68 -1 4 Z " fill="#154636" transform="translate(47,21)"/>
<path d="M0 0 C1.98 0.495 1.98 0.495 4 1 C4 2.32 4 3.64 4 5 C5.65 5 7.3 5 9 5 C8.67 7.31 8.34 9.62 8 12 C9.65 12.33 11.3 12.66 13 13 C13.33 15.31 13.66 17.62 14 20 C12.68 20.33 11.36 20.66 10 21 C9.814375 20.21625 9.62875 19.4325 9.4375 18.625 C8.16038373 15.60623658 8.16038373 15.60623658 4.375 14.6875 C3.26125 14.460625 2.1475 14.23375 1 14 C1.06510417 11.98177083 1.13020833 9.96354167 1.1953125 7.9453125 C1.18331689 5.76136355 1.18331689 5.76136355 -1 4 C-0.625 1.875 -0.625 1.875 0 0 Z " fill="#8F9CAC" transform="translate(7,19)"/>
<path d="M0 0 C0.66 0 1.32 0 2 0 C2.33 1.32 2.66 2.64 3 4 C1.68 3.67 0.36 3.34 -1 3 C-0.67 3.99 -0.34 4.98 0 6 C1.98045559 6.66179847 1.98045559 6.66179847 4 7 C5 8 5 8 5.0625 11.5625 C5.041875 12.696875 5.02125 13.83125 5 15 C5.66 15 6.32 15 7 15 C6.67 15.99 6.34 16.98 6 18 C5.01 17.67 4.02 17.34 3 17 C2.3125 14.9375 2.3125 14.9375 2 13 C-1.46941546 13.45822468 -4.67395049 13.89131683 -8 15 C-8 14.01 -8 13.02 -8 12 C-8.9793879 10.97980427 -9.97895449 9.97850195 -11 9 C-11 8.34 -11 7.68 -11 7 C-5.125 7.875 -5.125 7.875 -4 9 C-3.67 6.36 -3.34 3.72 -3 1 C-2.01 1.33 -1.02 1.66 0 2 C0 1.34 0 0.68 0 0 Z " fill="#7E9276" transform="translate(31,19)"/>
<path d="M0 0 C0.928125 0.33 1.85625 0.66 2.8125 1 C5.92029291 2.14967004 5.92029291 2.14967004 9 2 C11.01151741 2.63106429 13.01363702 3.29373761 15 4 C15 6.31 15 8.62 15 11 C12.36 10.67 9.72 10.34 7 10 C7.33 11.65 7.66 13.3 8 15 C6.68 14.34 5.36 13.68 4 13 C4.66 11.35 5.32 9.7 6 8 C5.01 8 4.02 8 3 8 C1.92474806 5.34771188 0.90543849 2.71631546 0 0 Z " fill="#DBBDD6" transform="translate(13,16)"/>
<path d="M0 0 C0.66 0.33 1.32 0.66 2 1 C0.125 8.625 0.125 8.625 -1 12 C-3.0625 13.1875 -3.0625 13.1875 -5 14 C-5 15.32 -5 16.64 -5 18 C-6.65 18.33 -8.3 18.66 -10 19 C-10.66 18.01 -11.32 17.02 -12 16 C-11.34 15.67 -10.68 15.34 -10 15 C-9.34786708 12.97536745 -9.34786708 12.97536745 -9 11 C-7.68 11 -6.36 11 -5 11 C-4.5978125 9.39125 -4.5978125 9.39125 -4.1875 7.75 C-3.13772173 4.43491072 -2.25387672 2.56122354 0 0 Z " fill="#999696" transform="translate(51,25)"/>
<path d="M0 0 C0.99 0 1.98 0 3 0 C3 0.66 3 1.32 3 2 C3.99 2.33 4.98 2.66 6 3 C7.05047644 5.31104818 8.05007438 7.64583651 9 10 C9.66 10.66 10.32 11.32 11 12 C10.05125 11.814375 9.1025 11.62875 8.125 11.4375 C5.10131207 10.71313368 5.10131207 10.71313368 3 12 C3 11.34 3 10.68 3 10 C1.35 9.67 -0.3 9.34 -2 9 C-1.125 1.125 -1.125 1.125 0 0 Z " fill="#5F8CA9" transform="translate(15,7)"/>
<path d="M0 0 C0.6875 1.75 0.6875 1.75 1 4 C-0.0625 6.25 -0.0625 6.25 -2 8 C-5 8.5 -5 8.5 -8 8 C-9.875 6 -9.875 6 -11 4 C-8.36255031 -1.84006718 -6.04918208 -1.00819701 0 0 Z " fill="#CAA9B1" transform="translate(37,5)"/>
<path d="M0 0 C5.94 0.99 5.94 0.99 12 2 C11.34 3.32 10.68 4.64 10 6 C7.9375 6.625 7.9375 6.625 6 7 C5.67 7.66 5.34 8.32 5 9 C4.01 8.67 3.02 8.34 2 8 C0.5522078 5.10441559 0 3.25811062 0 0 Z " fill="#F4F4F5" transform="translate(21,44)"/>
<path d="M0 0 C3.44216672 2.6598561 3.99504674 5.90288286 5 10 C5.99 9.34 6.98 8.68 8 8 C7.64947365 11.15473719 7.13480924 12.8233534 5.1875 15.375 C3 17 3 17 0.75 16.75 C0.1725 16.5025 -0.405 16.255 -1 16 C-0.67 14.35 -0.34 12.7 0 11 C0.66 11.33 1.32 11.66 2 12 C2.33 11.34 2.66 10.68 3 10 C2.34 10 1.68 10 1 10 C0.855625 9.05125 0.71125 8.1025 0.5625 7.125 C0.17064601 4.1065506 0.17064601 4.1065506 -1 2 C-0.67 1.34 -0.34 0.68 0 0 Z " fill="#336253" transform="translate(35,24)"/>
<path d="M0 0 C2.97 0.33 5.94 0.66 9 1 C9 1.99 9 2.98 9 4 C9.66 4 10.32 4 11 4 C11.33 3.34 11.66 2.68 12 2 C12.66 2 13.32 2 14 2 C14.33 3.98 14.66 5.96 15 8 C13.02 8.99 13.02 8.99 11 10 C9.72390677 9.09066991 8.45434447 8.17217147 7.1875 7.25 C6.47980469 6.73953125 5.77210937 6.2290625 5.04296875 5.703125 C2.97022309 3.97517642 1.52624146 2.21473524 0 0 Z " fill="#5D8761" transform="translate(18,35)"/>
<path d="M0 0 C2.0625 0.4375 2.0625 0.4375 4 1 C4 2.32 4 3.64 4 5 C5.65 5 7.3 5 9 5 C8.67 6.65 8.34 8.3 8 10 C6.35 10.33 4.7 10.66 3 11 C-0.51460674 4.27640449 -0.51460674 4.27640449 -1 1 C-0.67 0.67 -0.34 0.34 0 0 Z " fill="#989AB5" transform="translate(7,19)"/>
<path d="M0 0 C0.9075 0.165 1.815 0.33 2.75 0.5 C6.11087503 1.10137146 6.11087503 1.10137146 10 1 C10.66 1.33 11.32 1.66 12 2 C12 2.99 12 3.98 12 5 C11.34 5 10.68 5 10 5 C10 5.66 10 6.32 10 7 C7.69 7.33 5.38 7.66 3 8 C3 7.01 3 6.02 3 5 C2.0206121 3.97980427 1.02104551 2.97850195 0 2 C0 1.34 0 0.68 0 0 Z " fill="#959B83" transform="translate(20,26)"/>
<path d="M0 0 C0 2.31 0 4.62 0 7 C-1.32 6.67 -2.64 6.34 -4 6 C-4 6.99 -4 7.98 -4 9 C-4.66 9 -5.32 9 -6 9 C-6 8.34 -6 7.68 -6 7 C-7.98 7 -9.96 7 -12 7 C-5.36842105 0 -5.36842105 0 0 0 Z " fill="#D6B6C2" transform="translate(44,7)"/>
<path d="M0 0 C1.65 0.33 3.3 0.66 5 1 C4.50341703 6.66104589 3.45489316 10.87674471 1 16 C0.34 15.67 -0.32 15.34 -1 15 C-0.9278125 14.41992188 -0.855625 13.83984375 -0.78125 13.2421875 C-0.2533613 8.79912426 0.11496626 4.48368422 0 0 Z " fill="#D1684D" transform="translate(44,7)"/>
<path d="M0 0 C2.97 0.495 2.97 0.495 6 1 C6 3.31 6 5.62 6 8 C3.69 7.67 1.38 7.34 -1 7 C-0.67 4.69 -0.34 2.38 0 0 Z " fill="#E7C91E" transform="translate(22,19)"/>
<path d="M0 0 C2.88437779 1.29299694 4.87219421 2.65941363 7 5 C4.69 5 2.38 5 0 5 C0 6.98 0 8.96 0 11 C-1.65 11.33 -3.3 11.66 -5 12 C-5 11.34 -5 10.68 -5 10 C-4.01 9.34 -3.02 8.68 -2 8 C-1.59270772 5.67843403 -1.25561323 3.3431213 -1 1 C-0.67 0.67 -0.34 0.34 0 0 Z " fill="#B1B3B6" transform="translate(22,40)"/>
<path d="M0 0 C0.33 0 0.66 0 1 0 C1.33 2.97 1.66 5.94 2 9 C2.99 9.33 3.98 9.66 5 10 C3.35 11.98 1.7 13.96 0 16 C-1.32 15.67 -2.64 15.34 -4 15 C-3.34 15 -2.68 15 -2 15 C-0.9838308 10.37078475 -1.16203269 6.65537393 -2 2 C-1.34 2 -0.68 2 0 2 C0 1.34 0 0.68 0 0 Z " fill="#5E8B70" transform="translate(33,30)"/>
<path d="M0 0 C0.99 0 1.98 0 3 0 C3 0.66 3 1.32 3 2 C3.99 2.33 4.98 2.66 6 3 C6.33 4.65 6.66 6.3 7 8 C6.01 8.495 6.01 8.495 5 9 C5 8.01 5 7.02 5 6 C2.03 5.505 2.03 5.505 -1 5 C-0.67 3.35 -0.34 1.7 0 0 Z " fill="#EAC0CC" transform="translate(15,7)"/>
<path d="M0 0 C0.66 0.33 1.32 0.66 2 1 C0.125 8.625 0.125 8.625 -1 12 C-1.99 12 -2.98 12 -4 12 C-4 6.6751288 -3.38780599 4.12428556 0 0 Z " fill="#D4B2BC" transform="translate(51,25)"/>
<path d="M0 0 C0.99 0 1.98 0 3 0 C3.33 2.64 3.66 5.28 4 8 C2.35 8.33 0.7 8.66 -1 9 C-1.80967438 6.08517222 -2.21845993 4.53886783 -1.0625 1.6875 C-0.711875 1.130625 -0.36125 0.57375 0 0 Z " fill="#527454" transform="translate(30,50)"/>
<path d="M0 0 C0.99 0 1.98 0 3 0 C3.33 1.98 3.66 3.96 4 6 C3.34 6 2.68 6 2 6 C2 5.34 2 4.68 2 4 C1.34 4 0.68 4 0 4 C0 4.66 0 5.32 0 6 C-1.65 5.67 -3.3 5.34 -5 5 C-4.67 3.68 -4.34 2.36 -4 1 C-2.02 1.495 -2.02 1.495 0 2 C0 1.34 0 0.68 0 0 Z " fill="#D0B7DD" transform="translate(31,15)"/>
<path d="M0 0 C1.67542976 0.28604898 3.34385343 0.61781233 5 1 C4.75 3.375 4.75 3.375 4 6 C1.9375 7.3125 1.9375 7.3125 0 8 C-0.38063221 5.6739143 -0.71269945 3.33944736 -1 1 C-0.67 0.67 -0.34 0.34 0 0 Z " fill="#BC5C45" transform="translate(55,13)"/>
<path d="M0 0 C1.65 0 3.3 0 5 0 C5.33 0.66 5.66 1.32 6 2 C5.01 3.485 5.01 3.485 4 5 C4 4.34 4 3.68 4 3 C3.34 3 2.68 3 2 3 C2 3.99 2 4.98 2 6 C2.66 6.33 3.32 6.66 4 7 C1.03 6.505 1.03 6.505 -2 6 C-1.34 4.02 -0.68 2.04 0 0 Z " fill="#EDCA26" transform="translate(36,17)"/>
<path d="M0 0 C0.625 2.375 0.625 2.375 1 5 C0.34 5.66 -0.32 6.32 -1 7 C-1.99 7 -2.98 7 -4 7 C-4.33 5.02 -4.66 3.04 -5 1 C-3 0 -3 0 0 0 Z " fill="#EA7B63" transform="translate(36,6)"/>
<path d="M0 0 C0.66 0 1.32 0 2 0 C0.33248852 3.94139078 -2.22710649 6.7892812 -5 10 C-5.66 9.67 -6.32 9.34 -7 9 C-7 7.35 -7 5.7 -7 4 C-5.68 4 -4.36 4 -3 4 C-1.36323743 2.0399719 -1.36323743 2.0399719 0 0 Z " fill="#275549" transform="translate(47,21)"/>
<path d="M0 0 C0.99 0 1.98 0 3 0 C3.33 1.98 3.66 3.96 4 6 C2.35 6 0.7 6 -1 6 C-1.625 4.125 -1.625 4.125 -2 2 C-1.34 1.34 -0.68 0.68 0 0 Z " fill="#F3F3F3" transform="translate(36,41)"/>
<path d="M0 0 C2.97 0.33 5.94 0.66 9 1 C9.33 2.65 9.66 4.3 10 6 C5.96825194 5.72510809 4.43105369 5.46508424 1.625 2.4375 C0.820625 1.2309375 0.820625 1.2309375 0 0 Z " fill="#517C5C" transform="translate(18,35)"/>
<path d="M0 0 C0.66 0 1.32 0 2 0 C2 1.32 2 2.64 2 4 C3.32 4 4.64 4 6 4 C6 6.64 6 9.28 6 12 C4.68 11.34 3.36 10.68 2 10 C2.66 8.35 3.32 6.7 4 5 C3.01 5 2.02 5 1 5 C0.67 3.35 0.34 1.7 0 0 Z " fill="#D1B1C4" transform="translate(15,19)"/>
<path d="M0 0 C3 1 6 2 9 3 C8.67 4.32 8.34 5.64 8 7 C7.01 6.67 6.02 6.34 5 6 C5 5.34 5 4.68 5 4 C4.360625 3.896875 3.72125 3.79375 3.0625 3.6875 C2.381875 3.460625 1.70125 3.23375 1 3 C0.67 2.01 0.34 1.02 0 0 Z " fill="#546D51" transform="translate(15,28)"/>
<path d="M0 0 C0.99 0.66 1.98 1.32 3 2 C3 5.61029169 2.03907418 8.55806676 1 12 C0.67 12 0.34 12 0 12 C0 10.02 0 8.04 0 6 C-0.66 5.67 -1.32 5.34 -2 5 C-1.34 3.35 -0.68 1.7 0 0 Z " fill="#D7DCD6" transform="translate(33,44)"/>
<path d="M0 0 C0.66 0 1.32 0 2 0 C2.12375 0.78375 2.2475 1.5675 2.375 2.375 C2.79117993 5.14057822 2.79117993 5.14057822 5 7 C4.01 7.99 3.02 8.98 2 10 C-0.09350689 6.5980513 -0.17942163 3.94727588 0 0 Z " fill="#CFB3B9" transform="translate(38,25)"/>
<path d="M0 0 C1.53202706 0.25195908 3.05257128 0.57596777 4.5625 0.9375 C5.38878906 1.13214844 6.21507812 1.32679687 7.06640625 1.52734375 C8.02353516 1.76130859 8.02353516 1.76130859 9 2 C7.63671875 3.51953125 7.63671875 3.51953125 6 5 C3.8125 4.6875 3.8125 4.6875 2 4 C2 3.34 2 2.68 2 2 C1.01 1.67 0.02 1.34 -1 1 C-0.67 0.67 -0.34 0.34 0 0 Z " fill="#CC95BF" transform="translate(47,19)"/>
<path d="M0 0 C1.98 0.495 1.98 0.495 4 1 C4 2.32 4 3.64 4 5 C2.35 4.67 0.7 4.34 -1 4 C-0.67 2.68 -0.34 1.36 0 0 Z " fill="#E7BFCA" transform="translate(7,19)"/>
<path d="M0 0 C0.66 0.33 1.32 0.66 2 1 C2 1.99 2 2.98 2 4 C1.34 4 0.68 4 0 4 C0 4.66 0 5.32 0 6 C-0.99 6 -1.98 6 -3 6 C-3 4.68 -3 3.36 -3 2 C-2.01 1.34 -1.02 0.68 0 0 Z " fill="#C4B0B3" transform="translate(30,27)"/>
<path d="M0 0 C0.99 0 1.98 0 3 0 C3 2.31 3 4.62 3 7 C2.01 7 1.02 7 0 7 C0 4.69 0 2.38 0 0 Z " fill="#ECC4C3" transform="translate(41,15)"/>
<path d="M0 0 C0.99 0.66 1.98 1.32 3 2 C2.01 4.31 1.02 6.62 0 9 C-0.66 8.67 -1.32 8.34 -2 8 C-1.125 1.125 -1.125 1.125 0 0 Z " fill="#144837" transform="translate(45,14)"/>
<path d="M0 0 C0.99 0.99 1.98 1.98 3 3 C2.67 3.99 2.34 4.98 2 6 C1.01 6 0.02 6 -1 6 C-1 6.66 -1 7.32 -1 8 C-1.99 7.67 -2.98 7.34 -4 7 C-4 6.34 -4 5.68 -4 5 C-2.35 5 -0.7 5 1 5 C0.67 3.35 0.34 1.7 0 0 Z " fill="#C8C8C8" transform="translate(39,54)"/>
<path d="M0 0 C0.66 0 1.32 0 2 0 C2.33 1.98 2.66 3.96 3 6 C0.03 5.505 0.03 5.505 -3 5 C-3 4.34 -3 3.68 -3 3 C-2.01 3 -1.02 3 0 3 C0 2.01 0 1.02 0 0 Z " fill="#D99DAD" transform="translate(52,15)"/>
<path d="M0 0 C0.66 0 1.32 0 2 0 C2.33 2.31 2.66 4.62 3 7 C2.01 7 1.02 7 0 7 C-0.38133299 5.0085944 -0.71325582 3.00720923 -1 1 C-0.67 0.67 -0.34 0.34 0 0 Z " fill="#F8C8D4" transform="translate(29,6)"/>
<path d="M0 0 C1.32 0.33 2.64 0.66 4 1 C4 2.32 4 3.64 4 5 C2.68 4.67 1.36 4.34 0 4 C0 2.68 0 1.36 0 0 Z " fill="#FCFCFC" transform="translate(37,47)"/>
<path d="M0 0 C1.65 0 3.3 0 5 0 C5 0.99 5 1.98 5 3 C3.35 3.33 1.7 3.66 0 4 C0 2.68 0 1.36 0 0 Z " fill="#CEB031" transform="translate(21,22)"/>
<path d="M0 0 C0.99 0 1.98 0 3 0 C3.33 1.98 3.66 3.96 4 6 C3.34 6 2.68 6 2 6 C2 5.34 2 4.68 2 4 C1.01 3.67 0.02 3.34 -1 3 C-0.67 2.01 -0.34 1.02 0 0 Z " fill="#C5ACD8" transform="translate(31,15)"/>
<path d="M0 0 C2.97 0.495 2.97 0.495 6 1 C6.33 2.32 6.66 3.64 7 5 C6.34 5 5.68 5 5 5 C5 4.01 5 3.02 5 2 C4.01 2 3.02 2 2 2 C2 2.66 2 3.32 2 4 C1.34 4 0.68 4 0 4 C0 2.68 0 1.36 0 0 Z " fill="#A19CBF" transform="translate(29,13)"/>
<path d="M0 0 C0.99 0.33 1.98 0.66 3 1 C3.33 2.65 3.66 4.3 4 6 C3.01 6.495 3.01 6.495 2 7 C2 6.01 2 5.02 2 4 C0.68 3.67 -0.64 3.34 -2 3 C-1.34 2.67 -0.68 2.34 0 2 C0 1.34 0 0.68 0 0 Z " fill="#C8B0C1" transform="translate(18,9)"/>
<path d="M0 0 C0.99 0 1.98 0 3 0 C3 1.32 3 2.64 3 4 C1.35 4.33 -0.3 4.66 -2 5 C-1.34 3.35 -0.68 1.7 0 0 Z " fill="#6E8E69" transform="translate(30,50)"/>
<path d="M0 0 C1.32 0 2.64 0 4 0 C4 1.32 4 2.64 4 4 C2.35 3.67 0.7 3.34 -1 3 C-0.67 2.01 -0.34 1.02 0 0 Z " fill="#CCB5D5" transform="translate(12,24)"/>
<path d="M0 0 C0 0.66 0 1.32 0 2 C0.66 2 1.32 2 2 2 C2 2.99 2 3.98 2 5 C1.34 5 0.68 5 0 5 C0 4.34 0 3.68 0 3 C-1.98 3 -3.96 3 -6 3 C-2.25 0 -2.25 0 0 0 Z " fill="#E09ECA" transform="translate(38,11)"/>
</svg>
